<?xml version="1.0" standalone="no"?>
<!DOCTYPE svg PUBLIC "-//W3C//DTD SVG 20010904//EN"
 "http://www.w3.org/TR/2001/REC-SVG-20010904/DTD/svg10.dtd">
<svg version="1.0" xmlns="http://www.w3.org/2000/svg"
 width="512.000000pt" height="512.000000pt" viewBox="0 0 512.000000 512.000000"
 preserveAspectRatio="xMidYMid meet">
<metadata>
Created by potrace 1.14, written by Peter Selinger 2001-2017
</metadata>
<g transform="translate(0.000000,512.000000) scale(0.100000,-0.100000)"
fill="#000000" stroke="none">
<path d="M4173 4845 c-80 -22 -130 -51 -186 -108 -102 -104 -141 -265 -96
-400 l20 -58 -103 -117 c-56 -64 -105 -119 -108 -122 -3 -3 -39 -43 -80 -90
-41 -47 -77 -87 -80 -90 -3 -3 -66 -74 -140 -158 -112 -129 -137 -152 -154
-146 -12 3 -58 8 -104 10 -98 3 -168 -17 -243 -71 -27 -19 -52 -35 -55 -35 -4
0 -70 27 -148 61 -77 34 -159 69 -181 78 -22 10 -59 26 -82 36 -34 14 -43 23
-44 44 -4 143 -97 280 -238 348 -49 24 -68 27 -151 28 -66 0 -110 -5 -145 -18
-99 -34 -206 -140 -241 -237 -22 -62 -27 -187 -8 -249 l14 -49 -307 -311 -308
-310 -55 15 c-258 70 -517 -144 -497 -409 17 -225 188 -379 413 -373 147 4
270 84 338 219 32 62 39 87 42 148 2 45 -3 97 -12 132 l-15 59 309 310 308
310 44 -15 c43 -14 152 -16 215 -2 34 7 128 58 157 85 19 17 26 15 241 -77
122 -53 225 -98 228 -102 4 -3 9 -26 12 -51 13 -98 49 -173 117 -240 95 -96
227 -137 356 -110 256 53 386 306 290 560 -4 9 9 31 32 55 21 22 107 119 192
215 129 147 344 389 400 452 13 14 23 15 70 6 263 -48 496 155 478 416 -14
200 -169 356 -368 370 -51 4 -92 1 -127 -9z"/>
<path d="M3869 3440 c-4 -3 -8 -606 -8 -1360 0 -745 -1 -1391 -1 -1436 l0 -81
-160 0 -160 0 -2 796 -3 796 -405 0 -405 0 -2 -765 c-1 -421 -2 -779 -2 -796
l-1 -31 -160 0 -160 -1 -1 26 c0 15 -1 484 -2 1042 l-2 1015 -405 0 -405 0 -3
-1041 -2 -1042 -160 0 -160 0 0 463 0 463 -23 4 c-12 2 -195 3 -407 3 l-385 0
-3 -467 -2 -467 -208 0 c-114 0 -213 0 -219 0 -10 -1 -13 -38 -13 -151 l0
-149 2560 -1 2561 0 -3 152 -3 152 -217 -1 -218 0 0 1439 c0 791 -3 1438 -7
1439 -37 4 -797 3 -804 -1z"/>
</g>
</svg>
